# xmcd CD database file
#
# Track frame offsets:
#	150
#	31277
#	59381
#	81958
#	115367
#	138490
#	155866
#	176239
#	194644
#
# Disc length: 2887 seconds
#
# Revision: 0
# Processed by: cddbd v1.5.2PL0 Copyright (c) Steve Scherf et al.
# Submitted via: CDex 1.70beta2
#
DISCID=870b4509
DTITLE=Fjodor M. Dostojewskij - Bobok. Aufzeichnungen eines Ungenannten (Groteske gelesen von Dieter Hildebrandt) 1 CD, 48 Min., 9 Tracks
DYEAR=1900
DGENRE=Blues
TTITLE0=Bobok  1
TTITLE1=Bobok  2
TTITLE2=Bobok  3
TTITLE3=Bobok  4
TTITLE4=Bobok  5
TTITLE5=Bobok  6
TTITLE6=Bobok  7
TTITLE7=Bobok  8
TTITLE8=Bobok  9
EXTD=
EXTT0=
EXTT1=
EXTT2=
EXTT3=
EXTT4=
EXTT5=
EXTT6=
EXTT7=
EXTT8=
PLAYORDER=
